<?xml version="1.0" encoding="utf-8"?>
<!-- Generator: Adobe Illustrator 28.3.0, SVG Export Plug-In . SVG Version: 6.00 Build 0)  -->
<svg version="1.1" id="Layer_1" xmlns="http://www.w3.org/2000/svg" xmlns:xlink="http://www.w3.org/1999/xlink" x="0px" y="0px"
	 viewBox="0 0 450 150" style="enable-background:new 0 0 450 150;" xml:space="preserve">
<style type="text/css">
	.st0{fill:#FFFFFF;}
	.st1{clip-path:url(#SVGID_00000181061669227276606880000007981693896001597088_);}
	.st2{clip-path:url(#SVGID_00000016058352721811285980000003919783342691796147_);fill:#FFFFFF;}
	.st3{clip-path:url(#SVGID_00000181061669227276606880000007981693896001597088_);fill:#003087;}
	.st4{clip-path:url(#SVGID_00000101104324526521490330000016630966122182193583_);fill:#003087;}
</style>
<g>
	<path class="st0" d="M182.4,93.1h-34.9v-6.9l21.2-27.6h-20.6v-9h33.8v8.2l-19.7,26.3h20.2V93.1z"/>
	<path class="st0" d="M219,79.5h-23.1c0.8,3.9,3.4,6.3,6.8,6.3c2.3,0,5-0.6,6.7-3.8l8.9,1.9c-2.7,6.9-8.4,10.2-15.6,10.2
		c-9.1,0-16.6-6.9-16.6-17.3c0-10.3,7.5-17.3,16.7-17.3c8.9,0,16.1,6.6,16.3,17.3V79.5z M196,73.1h13c-0.9-3.5-3.5-5.1-6.3-5.1
		C199.9,68,197,69.8,196,73.1z"/>
	<path class="st0" d="M247.4,60.3l-0.4,10.4h-1.8c-7,0-10.9,3.8-10.9,12.2v10.2h-10V60.5h10v6.2c2.3-3.9,5.7-6.7,10.9-6.7
		C246,60.1,246.6,60.1,247.4,60.3z"/>
	<path class="st0" d="M284.1,76.8c0,10.3-7.9,17.2-17.3,17.2c-9.5,0-17.5-6.9-17.5-17.2c0-10.3,7.9-17.1,17.5-17.1
		C276.2,59.7,284.1,66.6,284.1,76.8z M274.4,76.8c0-5.1-3.7-8.4-7.6-8.4c-4.1,0-7.8,3.4-7.8,8.4c0,5.1,3.7,8.4,7.8,8.4
		C270.7,85.2,274.4,81.9,274.4,76.8z"/>
	<path class="st0" d="M323.2,61.2l-10.2,2.1c-0.8-4.1-4-6.1-7.3-6.1c-3.5,0-5.7,1.9-5.7,4.4c0,1.8,0.8,3.1,3.4,3.6l8.7,2
		c7.3,1.7,11.6,5.8,11.6,12.7c0,9.3-8,14.1-17.3,14.1c-9.5,0-17.3-4.7-18.4-13.2l10.7-2.1c1.1,4.5,4.1,6.4,8.3,6.4
		c3.9,0,6.2-1.8,6.2-4.5c0-1.9-0.9-3.2-3.9-3.8l-8.8-1.9c-6-1.4-11.3-4.7-11.3-12.6c0-8.4,6.8-13.7,16.6-13.7
		C315,48.6,321.7,53.3,323.2,61.2z"/>
	<path class="st0" d="M362.8,61.2l-10.2,2.1c-0.8-4.1-4-6.1-7.3-6.1c-3.5,0-5.7,1.9-5.7,4.4c0,1.8,0.8,3.1,3.4,3.6l8.7,2
		c7.3,1.7,11.6,5.8,11.6,12.7c0,9.3-8,14.1-17.3,14.1c-9.5,0-17.3-4.7-18.4-13.2l10.7-2.1c1.1,4.5,4.1,6.4,8.3,6.4
		c3.9,0,6.2-1.8,6.2-4.5c0-1.9-0.9-3.2-3.9-3.8l-8.8-1.9c-6-1.4-11.3-4.7-11.3-12.6c0-8.4,6.8-13.7,16.6-13.7
		C354.6,48.6,361.2,53.3,362.8,61.2z"/>
	<path class="st0" d="M400.6,93.1h-31.1V49.6h10.4v34.1h20.7V93.1z"/>
</g>
<g>
	<rect x="40.7" y="91.7" class="st0" width="20.3" height="20.3"/>
	<polygon class="st0" points="101.4,71.5 101.4,51.2 81.2,51.2 81.2,31 60.9,31 60.9,51.2 40.7,51.2 40.7,71.5 60.9,71.5 60.9,91.7 
		81.1,91.7 81.1,112 101.4,112 101.4,91.7 121.6,91.7 121.6,71.5 	"/>
</g>
<g>
	<g>
		<path class="st0" d="M296.9,113.4c0,3.1-1.6,5-4,5c-1.3,0-2.4-0.6-2.9-1.6h0v4.8h-1.7v-13.1h1.6v1.4h0c0.5-1,1.6-1.6,2.9-1.6
			C295.3,108.4,296.9,110.4,296.9,113.4z M289.9,113.4c0,2.3,1,3.7,2.6,3.7c1.6,0,2.7-1.5,2.7-3.7c0-2.2-1.1-3.7-2.7-3.7
			C290.9,109.8,289.9,111.2,289.9,113.4z"/>
		<path class="st0" d="M306.5,112.1v3.7c0,1.1,0.1,1.9,0.2,2.4h-1.5c-0.1-0.4-0.1-1-0.1-1.4h0c-0.7,1-1.8,1.6-3.3,1.6
			c-2,0-3.2-1.2-3.2-2.8c0-1.6,0.9-2.6,3.6-3c0.8-0.1,2-0.3,2.8-0.3v-0.4c0-1.6-0.9-2.2-2.2-2.2c-1.4,0-2.1,0.8-2.2,1.9h-1.7
			c0.1-1.8,1.4-3.2,3.8-3.2C305.1,108.4,306.5,109.6,306.5,112.1z M304.9,113.6c-0.7,0.1-1.8,0.2-2.5,0.3c-1.6,0.2-2.2,0.7-2.2,1.7
			c0,1,0.7,1.6,2,1.6c0.8,0,1.5-0.3,2-0.8c0.6-0.6,0.8-1.1,0.8-2.3V113.6z"/>
		<path class="st0" d="M314.7,108.7v1.5c-0.2,0-0.5-0.1-0.7-0.1c-1.8,0-2.8,1.2-2.8,3.3v4.9h-1.7v-9.6h1.6v1.5h0
			c0.6-1.1,1.6-1.6,2.8-1.6C314.2,108.6,314.4,108.6,314.7,108.7z"/>
		<path class="st0" d="M320.8,116.9v1.4c-0.3,0.1-0.7,0.1-1.1,0.1c-1.8,0-2.6-0.8-2.6-2.8V110h-1.7v-1.3h1.7v-2.3h1.7v2.3h1.9v1.3
			h-1.9v5.4c0,1.1,0.4,1.5,1.3,1.5C320.4,116.9,320.6,116.9,320.8,116.9z"/>
		<path class="st0" d="M335.9,113.5c0,3.1-1.8,5-4.6,5c-2.8,0-4.5-1.9-4.5-5c0-3.1,1.7-5,4.5-5C334.1,108.4,335.9,110.3,335.9,113.5
			z M328.5,113.5c0,2.3,1.1,3.7,2.8,3.7c1.8,0,2.8-1.4,2.8-3.7c0-2.3-1.1-3.7-2.8-3.7C329.6,109.8,328.5,111.2,328.5,113.5z"/>
		<path class="st0" d="M340.4,107.7v1h1.9v1.3h-1.9v8.3h-1.6V110h-1.7v-1.3h1.7v-1.2c0-1.8,0.9-2.7,2.6-2.7c0.3,0,0.7,0,1,0.1v1.3
			c-0.1,0-0.3-0.1-0.5-0.1C340.9,106.1,340.4,106.5,340.4,107.7z"/>
	</g>
	<g id="HID_logo_reverse_hyperlinked_RGB_00000010276182716832715150000011406188488364545467_">
		<g>
			<defs>
				<rect id="SVGID_1_" x="350.2" y="101.6" width="50.4" height="20.8"/>
			</defs>
			<clipPath id="SVGID_00000042727715674281037560000007937414196539378056_">
				<use xlink:href="#SVGID_1_"  style="overflow:visible;"/>
			</clipPath>
			<g style="clip-path:url(#SVGID_00000042727715674281037560000007937414196539378056_);">
				<defs>
					<rect id="SVGID_00000145026774505052429540000012731735859650115754_" x="350.2" y="101.6" width="50.4" height="20.8"/>
				</defs>
				<clipPath id="SVGID_00000119799098816217464740000008118117349484819886_">
					<use xlink:href="#SVGID_00000145026774505052429540000012731735859650115754_"  style="overflow:visible;"/>
				</clipPath>
				<path style="clip-path:url(#SVGID_00000119799098816217464740000008118117349484819886_);fill:#FFFFFF;" d="M398.2,122.3
					c1.3,0,2.3-1,2.3-2.3v-16.1c0-1.3-1-2.3-2.3-2.3h-45.7c-1.3,0-2.3,1-2.3,2.3V120c0,1.3,1,2.3,2.3,2.3H398.2z"/>
			</g>
			
				<rect x="372.5" y="106.6" style="clip-path:url(#SVGID_00000042727715674281037560000007937414196539378056_);fill:#003087;" width="5.4" height="10.7"/>
			<polygon style="clip-path:url(#SVGID_00000042727715674281037560000007937414196539378056_);fill:#003087;" points="364.3,112.7 
				364.3,117.3 369.6,117.3 369.6,106.6 364.3,106.6 364.3,111.2 360.7,111.2 360.7,106.6 355.3,106.6 355.3,117.3 360.7,117.3 
				360.7,112.7 			"/>
			<g style="clip-path:url(#SVGID_00000042727715674281037560000007937414196539378056_);">
				<defs>
					<rect id="SVGID_00000148653592097814597780000011465245948675855543_" x="350.2" y="101.6" width="50.4" height="20.8"/>
				</defs>
				<clipPath id="SVGID_00000023274242598872821490000009612508629216012677_">
					<use xlink:href="#SVGID_00000148653592097814597780000011465245948675855543_"  style="overflow:visible;"/>
				</clipPath>
				<path style="clip-path:url(#SVGID_00000023274242598872821490000009612508629216012677_);fill:#003087;" d="M385.9,116.3v-8.7
					c1.9,0,3.5-0.4,3.5,4.4C389.4,116.7,388.1,116.3,385.9,116.3 M389.4,106.6h-8.8v10.7h8.8c3.1,0,5.8-2.3,5.9-5.4
					C395.2,108.9,392.5,106.6,389.4,106.6"/>
			</g>
		</g>
	</g>
</g>
</svg>
